<?xml version="1.0" encoding="UTF-8"?>
<svg width="381px" height="93px" viewBox="0 0 381 93" version="1.1" xmlns="http://www.w3.org/2000/svg" xmlns:xlink="http://www.w3.org/1999/xlink">
    <title>logo_wide_uni_black</title>
    <g id="Page-1" stroke="none" stroke-width="1" fill="none" fill-rule="evenodd">
        <g id="logo_wide_uni_black" fill="#01BCFF" fill-rule="nonzero">
            <g id="Icon-app">
                <path d="M72.5747664,8.52651283e-14 C83.8553113,8.52651283e-14 93,9.14468859 93,20.4252336 L93,72.5747664 C93,83.8553113 83.8553113,93 72.5747664,93 L20.4252336,93 C9.14468859,93 0,83.8553113 0,72.5747664 L0,20.4252336 C0,9.14468859 9.14468859,8.52651283e-14 20.4252336,8.52651283e-14 L72.5747664,8.52651283e-14 Z M26.2991803,58.6967213 C22.2971313,58.6967213 18.295082,61.8983605 18.295082,66.7008197 C18.295082,71.5032786 22.2971313,74.704918 26.2991803,74.704918 C30.3012296,74.704918 34.3032787,70.7028687 34.3032787,66.7008197 C34.3032787,62.6987704 30.3012296,58.6967213 26.2991803,58.6967213 Z M23.6311475,41.1639344 L23.6311475,50.5655738 C33.0327867,50.5655738 42.4344262,59.9672133 42.4344262,69.3688525 L42.4344262,69.3688525 L51.8360656,69.3688525 C51.8360656,55.2663936 37.7336064,41.1639344 23.6311475,41.1639344 L23.6311475,41.1639344 Z M23.6311475,18.295082 L23.6311475,32.2242922 C42.2808123,32.2242922 60.7757078,50.7191877 60.7757078,69.3688525 L60.7757078,69.3688525 L74.704918,69.3688525 C74.704918,41.3943555 51.6056445,18.295082 23.6311475,18.295082 L23.6311475,18.295082 Z" id="Shape"></path>
            </g>
            <path d="M126.565217,67.2102564 C124.628176,63.4495538 122.662679,59.0495978 120.668666,54.0102564 C118.674653,48.9709151 116.785116,43.4803715 115,37.5384615 L124.001499,37.5384615 C124.381311,39.0051355 124.827584,40.5940086 125.34033,42.3051282 C125.853076,44.0162479 126.384805,45.746145 126.935532,47.4948718 C127.48626,49.2435986 128.036979,50.9452908 128.587706,52.6 C129.138433,54.2547092 129.679657,55.7589677 130.211394,57.1128205 L130.377386,56.6559655 C130.823781,55.4228306 131.300181,54.0708527 131.806597,52.6 C132.376315,50.9452908 132.936529,49.2435986 133.487256,47.4948718 C134.037984,45.746145 134.569713,44.0162479 135.082459,42.3051282 L135.260668,41.7062795 C135.69929,40.2218475 136.086161,38.8325856 136.421289,37.5384615 L145.194903,37.5384615 C143.409786,43.4803715 141.52025,48.9709151 139.526237,54.0102564 L139.260537,54.6783797 C137.357569,59.4394424 135.480636,63.6166961 133.629685,67.2102564 L126.565217,67.2102564 Z M158.241379,67.2102564 L149.752624,67.2102564 L149.752624,37.5384615 L158.241379,37.5384615 L158.241379,67.2102564 Z M159.038981,28.9641026 C159.038981,30.5059906 158.535737,31.718799 157.529235,32.6025641 C156.522734,33.4863292 155.335839,33.9282051 153.968516,33.9282051 C152.601193,33.9282051 151.414298,33.4863292 150.407796,32.6025641 C149.401294,31.718799 148.898051,30.5059906 148.898051,28.9641026 C148.898051,27.4222145 149.401294,26.2094061 150.407796,25.325641 C151.414298,24.441876 152.601193,24 153.968516,24 C155.335839,24 156.522734,24.441876 157.529235,25.325641 C158.535737,26.2094061 159.038981,27.4222145 159.038981,28.9641026 Z M177.668666,61.3435897 C178.504252,61.3435897 179.301845,61.3247866 180.061469,61.2871795 L180.323263,61.2731256 C180.961976,61.2360393 181.482404,61.1843141 181.884558,61.1179487 L181.884558,54.7435897 C181.542727,54.6683757 181.029988,54.5931628 180.346327,54.5179487 C179.662665,54.4427347 179.035985,54.4051282 178.466267,54.4051282 C177.668662,54.4051282 176.918544,54.4521362 176.215892,54.5461538 C175.51324,54.6401714 174.896055,54.8188021 174.364318,55.0820513 C173.832581,55.3453005 173.414794,55.7025619 173.110945,56.1538462 C172.807095,56.6051304 172.655172,57.1692273 172.655172,57.8461538 C172.655172,59.1623998 173.101445,60.0743564 173.994003,60.5820513 C174.886561,61.0897462 176.111437,61.3435897 177.668666,61.3435897 Z M176.985007,36.7487179 C179.491767,36.7487179 181.580701,37.0307664 183.251874,37.5948718 C184.923047,38.1589772 186.261864,38.9675161 187.268366,40.0205128 C188.274868,41.0735095 188.987004,42.3521291 189.404798,43.8564103 C189.822591,45.3606914 190.031484,47.0341789 190.031484,48.8769231 L190.031484,66.3641026 L189.717744,66.430894 C188.531099,66.679387 186.945537,66.9673773 184.961019,67.2948718 C182.796091,67.6521386 180.175428,67.8307692 177.098951,67.8307692 C175.161909,67.8307692 173.405305,67.6615402 171.829085,67.3230769 C170.252866,66.9846137 168.895058,66.4299185 167.755622,65.6589744 C166.616186,64.8880302 165.742632,63.8820575 165.134933,62.6410256 C164.527233,61.3999938 164.223388,59.8769321 164.223388,58.0717949 C164.223388,56.3418717 164.574709,54.8752196 165.277361,53.6717949 C165.980013,52.4683701 166.920034,51.5094052 168.097451,50.7948718 C169.274869,50.0803384 170.623181,49.5632494 172.142429,49.2435897 C173.661677,48.92393 175.237873,48.7641026 176.871064,48.7641026 C177.972519,48.7641026 178.95052,48.8111106 179.805097,48.9051282 C180.659675,48.9991458 181.352821,49.1213668 181.884558,49.2717949 L181.884558,48.4820513 C181.884558,47.0529842 181.44778,45.9059871 180.574213,45.0410256 C179.700645,44.1760641 178.18142,43.7435897 176.016492,43.7435897 C174.573206,43.7435897 173.148933,43.8470076 171.743628,44.0538462 C170.338324,44.2606847 169.122944,44.552135 168.097451,44.9282051 L167.014993,38.1589744 C167.477888,38.0179481 168.049267,37.8686605 168.729145,37.7111079 L168.866567,37.6794872 C169.6072,37.5102555 170.414289,37.3598296 171.287856,37.2282051 C172.161424,37.0965806 173.082454,36.9837612 174.050975,36.8897436 C175.019495,36.795726 175.997496,36.7487179 176.985007,36.7487179 Z M227.575712,28.1179487 L227.575712,35.6205128 L215.668666,35.6205128 L215.668666,67.2102564 L206.781109,67.2102564 L206.781109,35.6205128 L194.874063,35.6205128 L194.874063,28.1179487 L227.575712,28.1179487 Z M246.832084,44.9846154 C246.07246,44.7965802 245.179914,44.5991462 244.154423,44.3923077 C243.128931,44.1854692 242.027491,44.0820513 240.850075,44.0820513 C240.353788,44.0820513 239.766522,44.1230006 239.088264,44.2049001 L238.941529,44.2230769 C238.200895,44.3170945 237.640683,44.4205122 237.26087,44.5333333 L237.26087,67.2102564 L228.772114,67.2102564 L228.772114,39.1179487 C230.291362,38.5914503 232.085947,38.0931647 234.155922,37.6230769 C236.225897,37.1529892 238.53322,36.9179487 241.077961,36.9179487 C241.533735,36.9179487 242.084454,36.9461536 242.730135,37.0025641 C243.375816,37.0589746 244.021486,37.1341875 244.667166,37.2282051 C245.312847,37.3222227 245.958517,37.4350422 246.604198,37.5666667 C247.249879,37.6982912 247.800598,37.8581187 248.256372,38.0461538 L246.832084,44.9846154 Z M263.695652,61.3435897 C264.531239,61.3435897 265.328832,61.3247866 266.088456,61.2871795 L266.350251,61.2731256 C266.988962,61.2360393 267.509391,61.1843141 267.911544,61.1179487 L267.911544,54.7435897 C267.569713,54.6683757 267.056976,54.5931628 266.373313,54.5179487 C265.689651,54.4427347 265.062971,54.4051282 264.493253,54.4051282 C263.695648,54.4051282 262.945531,54.4521362 262.242879,54.5461538 C261.540226,54.6401714 260.923042,54.8188021 260.391304,55.0820513 C259.859567,55.3453005 259.441781,55.7025619 259.137931,56.1538462 C258.834082,56.6051304 258.682159,57.1692273 258.682159,57.8461538 C258.682159,59.1623998 259.128431,60.0743564 260.02099,60.5820513 C260.913548,61.0897462 262.138423,61.3435897 263.695652,61.3435897 Z M263.011994,36.7487179 C265.518754,36.7487179 267.607688,37.0307664 269.278861,37.5948718 C270.950033,38.1589772 272.28885,38.9675161 273.295352,40.0205128 C274.301854,41.0735095 275.013992,42.3521291 275.431784,43.8564103 C275.849577,45.3606914 276.058471,47.0341789 276.058471,48.8769231 L276.058471,66.3641026 L275.744732,66.430894 C274.558085,66.679387 272.972524,66.9673773 270.988006,67.2948718 C268.823078,67.6521386 266.202414,67.8307692 263.125937,67.8307692 C261.188897,67.8307692 259.432291,67.6615402 257.856072,67.3230769 C256.279853,66.9846137 254.922046,66.4299185 253.782609,65.6589744 C252.643172,64.8880302 251.769618,63.8820575 251.161919,62.6410256 C250.55422,61.3999938 250.250375,59.8769321 250.250375,58.0717949 C250.250375,56.3418717 250.601696,54.8752196 251.304348,53.6717949 C252.007,52.4683701 252.947021,51.5094052 254.124438,50.7948718 C255.301854,50.0803384 256.650168,49.5632494 258.169415,49.2435897 C259.688663,48.92393 261.26486,48.7641026 262.898051,48.7641026 C263.999506,48.7641026 264.977507,48.8111106 265.832084,48.9051282 C266.686661,48.9991458 267.379806,49.1213668 267.911544,49.2717949 L267.911544,48.4820513 C267.911544,47.0529842 267.474766,45.9059871 266.601199,45.0410256 C265.727633,44.1760641 264.208407,43.7435897 262.043478,43.7435897 C260.600192,43.7435897 259.175919,43.8470076 257.770615,44.0538462 C256.36531,44.2606847 255.149929,44.552135 254.124438,44.9282051 L253.041979,38.1589744 C253.535735,38.0085463 254.152919,37.8487188 254.893553,37.6794872 C255.634187,37.5102555 256.441276,37.3598296 257.314843,37.2282051 C258.188409,37.0965806 259.109441,36.9837612 260.077961,36.8897436 C261.046481,36.795726 262.024482,36.7487179 263.011994,36.7487179 Z M283.749625,38.5538462 C285.192912,38.1401689 287.053962,37.7547027 289.332834,37.3974359 C291.611705,37.0401691 294.004485,36.8615385 296.511244,36.8615385 C299.055986,36.8615385 301.173404,37.190595 302.863568,37.8487179 C304.553733,38.5068409 305.892548,39.4376009 306.88006,40.6410256 C307.867572,41.8444504 308.570213,43.2734959 308.988006,44.9282051 C309.405799,46.5829143 309.614693,48.4256309 309.614693,50.4564103 L309.614693,67.2102564 L301.125937,67.2102564 L301.125937,51.4717949 C301.125937,48.764089 300.76512,46.8461594 300.043478,45.7179487 C299.321836,44.589738 297.973523,44.025641 295.998501,44.025641 C295.390802,44.025641 294.745132,44.0538459 294.061469,44.1102564 C293.377807,44.1666669 292.770119,44.2324783 292.238381,44.3076923 L292.238381,67.2102564 L283.749625,67.2102564 L283.749625,38.5538462 Z M325.908546,61.174359 C327.465775,61.174359 328.567213,61.0239331 329.212894,60.7230769 C329.858574,60.4222208 330.181409,59.8393205 330.181409,58.974359 C330.181409,58.2974325 329.763623,57.7051308 328.928036,57.1974359 C328.092449,56.689741 326.820099,56.1162425 325.110945,55.4769231 C323.781603,54.9880317 322.575716,54.4803446 321.493253,53.9538462 C320.41079,53.4273477 319.489759,52.7974396 318.730135,52.0641026 C317.970511,51.3307656 317.381811,50.4564154 316.964018,49.4410256 C316.546225,48.4256359 316.337331,47.2034261 316.337331,45.774359 C316.337331,42.9914391 317.3818,40.791461 319.470765,39.174359 C321.55973,37.5572569 324.427269,36.7487179 328.073463,36.7487179 C329.89656,36.7487179 331.64367,36.9085454 333.314843,37.2282051 C334.986015,37.5478648 336.315337,37.8957247 337.302849,38.2717949 L335.821589,44.8153846 C334.834077,44.4769214 333.761125,44.1760697 332.602699,43.9128205 C331.444272,43.6495713 330.143436,43.5179487 328.70015,43.5179487 C326.041465,43.5179487 324.712144,44.2512747 324.712144,45.7179487 C324.712144,46.056412 324.769115,46.3572636 324.883058,46.6205128 C324.997001,46.883762 325.224885,47.1376056 325.566717,47.3820513 C325.908548,47.6264969 326.373809,47.8897421 326.962519,48.1717949 C327.551228,48.4538477 328.301345,48.7641008 329.212894,49.1025641 C331.073972,49.7794906 332.612188,50.4470052 333.827586,51.1051282 C335.042984,51.7632512 336.001995,52.4777738 336.704648,53.2487179 C337.4073,54.0196621 337.901047,54.8752089 338.185907,55.8153846 C338.470767,56.7555604 338.613193,57.8461476 338.613193,59.0871795 C338.613193,62.0205275 337.50226,64.2393086 335.28036,65.7435897 C333.05846,67.2478709 329.915563,68 325.851574,68 C323.19289,68 320.980518,67.7743611 319.214393,67.3230769 L318.826147,67.2228073 C317.26758,66.815806 316.172116,66.4731638 315.53973,66.1948718 L316.964018,59.3692308 C318.407304,59.9333361 319.888548,60.3752121 321.407796,60.6948718 C322.927044,61.0145315 324.42728,61.174359 325.908546,61.174359 Z M353.425787,67.2102564 L344.937031,67.2102564 L344.937031,37.5384615 L353.425787,37.5384615 L353.425787,67.2102564 Z M354.223388,28.9641026 C354.223388,30.5059906 353.720145,31.718799 352.713643,32.6025641 C351.707141,33.4863292 350.520246,33.9282051 349.152924,33.9282051 C347.785601,33.9282051 346.598706,33.4863292 345.592204,32.6025641 C344.585702,31.718799 344.082459,30.5059906 344.082459,28.9641026 C344.082459,27.4222145 344.585702,26.2094061 345.592204,25.325641 C346.598706,24.441876 347.785601,24 349.152924,24 C350.520246,24 351.707141,24.441876 352.713643,25.325641 C353.720145,26.2094061 354.223388,27.4222145 354.223388,28.9641026 Z M361.116942,30.1487179 L369.605697,28.7948718 L369.605697,37.5384615 L379.803598,37.5384615 L379.803598,44.5333333 L369.605697,44.5333333 L369.605697,54.9692308 C369.605697,56.7367609 369.919038,58.1470033 370.545727,59.2 C371.172416,60.2529967 372.435272,60.7794872 374.334333,60.7794872 C375.245881,60.7794872 376.185903,60.6948727 377.154423,60.525641 C378.122943,60.3564094 379.005993,60.121369 379.803598,59.8205128 L381,66.3641026 C379.974508,66.7777799 378.835089,67.1350413 377.581709,67.4358974 C376.328329,67.7367536 374.790114,67.8871795 372.967016,67.8871795 C370.650163,67.8871795 368.732141,67.5769261 367.212894,66.9564103 C365.693646,66.3358944 364.478265,65.4709456 363.566717,64.3615385 C362.655168,63.2521313 362.018992,61.9077003 361.658171,60.3282051 C361.29735,58.74871 361.116942,57.0000097 361.116942,55.0820513 L361.116942,30.1487179 Z" id="viaTransit"></path>
        </g>
    </g>
</svg>